<?xml version="1.0" encoding="utf-8"?>
<!-- Generator: Adobe Illustrator 19.0.0, SVG Export Plug-In . SVG Version: 6.00 Build 0)  -->
<svg version="1.1" id="Layer_1" xmlns="http://www.w3.org/2000/svg" xmlns:xlink="http://www.w3.org/1999/xlink" x="0px" y="0px"
	 viewBox="0 0 792 612" enable-background="new 0 0 792 612" xml:space="preserve">
<path id="XMLID_56_" fill="#50266D" d="M390.9,346.8H383l-4.8-7.1c-3.2,2.4-6.8,4.2-10.5,5.5c-3.8,1.3-7.8,1.9-12.1,1.9
	c-5,0-9.7-0.9-14-2.6c-4.3-1.8-8.1-4.2-11.3-7.5c-3.2-3.2-5.7-7-7.6-11.5c-1.9-4.5-2.8-9.4-2.8-14.9c0-5.3,0.9-10.3,2.6-14.8
	c1.8-4.5,4.2-8.4,7.4-11.7c3.2-3.2,7-5.8,11.4-7.6c4.4-1.8,9.3-2.7,14.5-2.7c4.9,0,9.6,0.9,14,2.6c4.4,1.7,8.2,4.2,11.5,7.4
	c3.2,3.2,5.8,7.1,7.7,11.6c1.9,4.5,2.8,9.6,2.8,15.2c0,4.9-0.7,9.3-2.1,13.4c-1.4,4.1-3.4,7.6-6,10.6l7.1,10.9V346.8z M328.5,310.6
	c0,4.7,0.7,8.8,2.1,12.4c1.4,3.6,3.4,6.6,5.8,9.1c2.5,2.5,5.4,4.3,8.7,5.6c3.3,1.3,6.9,1.9,10.8,1.9c3.9,0,7.5-0.7,10.8-2
	c3.4-1.4,6.3-3.3,8.8-5.8c2.5-2.5,4.4-5.5,5.8-9.1c1.4-3.6,2.1-7.6,2.1-12.1c0-4.5-0.7-8.6-2.1-12.2c-1.4-3.6-3.4-6.7-5.8-9.1
	c-2.5-2.5-5.4-4.4-8.8-5.7c-3.4-1.3-7-2-10.8-2c-3.9,0-7.5,0.7-10.8,2c-3.3,1.3-6.3,3.2-8.7,5.7c-2.5,2.5-4.4,5.5-5.8,9.1
	C329.2,302,328.5,306.1,328.5,310.6z"/>
<path id="XMLID_59_" fill="#50266D" d="M414.8,338.6h33.5v7.6h-42v-71h8.5V338.6z"/>
<path id="XMLID_61_" fill="#50266D" d="M521.1,275.1h3.2v71.1h-8.5V295l-23.3,32h-1.3l-23.3-32v51.2h-8.5v-71.1h3.3l29.2,39.6
	L521.1,275.1z"/>
<polygon id="XMLID_67_" fill="#50266D" points="571.5,274.9 567.7,274.9 534.6,345.1 534.6,346.2 543.5,346.2 554.6,321.3 
	554.6,321.3 569.5,288.2 584.4,321.3 584.4,321.3 595.6,346.2 604.3,346.2 604.3,345.1 "/>
<g id="XMLID_48_">
	<path id="XMLID_49_" fill="#2FBBA6" d="M286.1,263.6h-59.9c-9.3,0-16.9,7.6-16.9,16.9v59.9c0,9.3,7.6,16.9,16.9,16.9h41.2
		l-29.2-29.2c-1.9-1.7-3.2-4.1-3.2-6.9v-3V300v-3c0-5,4.1-9.1,9.1-9.1h3h18.1h12h0.1v0.1l25.7,25.7v-10.9v-22.4
		C303,271.2,295.4,263.6,286.1,263.6z"/>
	<rect id="XMLID_63_" x="247.1" y="300" fill="#2FBBA6" width="18.1" height="18.1"/>
	<path id="XMLID_64_" fill="#3C9183" d="M277.3,300v18.1v8.5v3.6v13.5l-10.5-13.5h-1.6h-18.1h-3c-2.3,0-4.3-0.8-5.9-2.2l29.2,29.2
		h16.5h2.3c9.3,0,16.9-7.6,16.9-16.9v-26.7L277.3,288V300z"/>
	<polygon id="XMLID_65_" fill="#FFFFFF" points="277.3,288 277.3,288 277.3,288 	"/>
	<path id="XMLID_53_" fill="#FFFFFF" d="M277.3,288h-12h-18.1h-3c-5,0-9.1,4.1-9.1,9.1v3v18.1v3c0,2.7,1.2,5.2,3.2,6.9
		c1.6,1.4,3.7,2.2,5.9,2.2h3h18.1h1.6l10.5,13.5v-13.5v-3.6v-8.5V300L277.3,288L277.3,288z M247.1,300h18.1v18.1h-18.1V300z"/>
</g>
</svg>
